<svg height="4126" width="720" xmlns="http://www.w3.org/2000/svg">
<rect height="4126" fill="#555" width="720"></rect>
<text fill="#7f7" font-family="Courier New" font-size="12" xml:space="preserve">
<tspan x="10" y="26"></tspan>

<tspan x="10" y="42">&gt; swagger-validate-lite@2018.8.19 postinstall /tmp/node_modules/swagger-validate-lite</tspan>

<tspan x="10" y="58">&gt; ./npm_scripts.sh</tspan>

<tspan x="10" y="74"></tspan>

<tspan x="10" y="90">running command 'npm run postinstall kaizhu256/node-swagger-validate-lite#alpha' ...</tspan>

<tspan x="10" y="106">... finished running command 'npm run postinstall kaizhu256/node-swagger-validate-lite#alpha'</tspan>

<tspan x="10" y="122">npm WARN saveError ENOENT: no such file or directory, open '/tmp/package.json'</tspan>

<tspan x="10" y="138">npm notice created a lockfile as package-lock.json. You should commit this file.</tspan>

<tspan x="10" y="154">npm WARN enoent ENOENT: no such file or directory, open '/tmp/package.json'</tspan>

<tspan x="10" y="170">npm WARN tmp No description</tspan>

<tspan x="10" y="186">npm WARN tmp No repository field.</tspan>

<tspan x="10" y="202">npm WARN tmp No README data</tspan>

<tspan x="10" y="218">npm WARN tmp No license field.</tspan>

<tspan x="10" y="234"></tspan>

<tspan x="10" y="250">+ swagger-validate-lite@2018.8.19</tspan>

<tspan x="10" y="266">added 1 package from 1 contributor and audited 1 package in 0.648s</tspan>

<tspan x="10" y="282">found 0 vulnerabilities</tspan>

<tspan x="10" y="298"></tspan>

<tspan x="10" y="314"></tspan>

<tspan x="10" y="330"></tspan>

<tspan x="10" y="346"></tspan>

<tspan x="10" y="362">$ curl -o /tmp/swagger.json http://petstore.swagger.io/v2/swagger.json</tspan>

<tspan x="10" y="378"></tspan>

<tspan x="10" y="394">  % Total    % Received % Xferd  Average Speed   Time    Time     Time  Current</tspan>

<tspan x="10" y="410">                                 Dload  Upload   Total   Spent    Left  Speed</tspan>

<tspan x="10" y="426"></tspan>
<tspan x="10" y="442">  0     0    0     0    0     0      0      0 --:--:-- --:--:-- --:--:--     0</tspan>
<tspan x="10" y="458">100 13689    0 13689    0     0   106k      0 --:--:-- --:--:-- --:--:--  106k</tspan>

<tspan x="10" y="474"></tspan>

<tspan x="10" y="490"></tspan>

<tspan x="10" y="506"></tspan>

<tspan x="10" y="522">$ /tmp/node_modules/.bin/swagger-validate-lite /tmp/swagger.json</tspan>

<tspan x="10" y="538"></tspan>

<tspan x="10" y="554"></tspan>

<tspan x="10" y="570">testExampleSh - merged test-report from file /home/travis/build/kaizhu256/node-swagger-validate-\</tspan>
<tspan x="10" y="586">lite/tmp/build/test-report.json</tspan>

<tspan x="10" y="602">swagger-validate-lite (2018.8.19)</tspan>

<tspan x="10" y="618"></tspan>

<tspan x="10" y="634">usage:</tspan>

<tspan x="10" y="650">  assets.utility2.rollup.js  &lt;arg1&gt;  &lt;arg2&gt;  ...</tspan>

<tspan x="10" y="666"></tspan>

<tspan x="10" y="682">example:</tspan>

<tspan x="10" y="698">  assets.utility2.rollup.js  --eval  'console.log("hello world")'</tspan>

<tspan x="10" y="714"></tspan>

<tspan x="10" y="730"># COMMAND --eval</tspan>

<tspan x="10" y="746"># will eval &lt;code&gt;</tspan>

<tspan x="10" y="762">  assets.utility2.rollup.js  --eval|-e  &lt;code&gt;</tspan>

<tspan x="10" y="778"></tspan>

<tspan x="10" y="794"># COMMAND --help</tspan>

<tspan x="10" y="810"># will print help</tspan>

<tspan x="10" y="826">  assets.utility2.rollup.js  --help|-h|help  </tspan>

<tspan x="10" y="842"></tspan>

<tspan x="10" y="858"># COMMAND --interactive</tspan>

<tspan x="10" y="874"># will start interactive-mode</tspan>

<tspan x="10" y="890">  assets.utility2.rollup.js  --interactive|-i  </tspan>

<tspan x="10" y="906"></tspan>

<tspan x="10" y="922"># COMMAND --version</tspan>

<tspan x="10" y="938"># will print version</tspan>

<tspan x="10" y="954">  assets.utility2.rollup.js  --version|-v  </tspan>

<tspan x="10" y="970"></tspan>

<tspan x="10" y="986"># COMMAND utility2.browserTest</tspan>

<tspan x="10" y="1002"># will browser-test in parallel, comma-separated &lt;urlList&gt; with given &lt;mode&gt;</tspan>

<tspan x="10" y="1018">  assets.utility2.rollup.js  utility2.browserTest  &lt;urlList&gt;  &lt;mode&gt;</tspan>

<tspan x="10" y="1034"></tspan>

<tspan x="10" y="1050"># COMMAND utility2.githubCrudContentDelete</tspan>

<tspan x="10" y="1066"># will delete from github &lt;fileRemote|dirRemote&gt;</tspan>

<tspan x="10" y="1082">  assets.utility2.rollup.js  utility2.githubCrudContentDelete  &lt;fileRemote|dirRemote&gt;  &lt;commitMe\</tspan>
<tspan x="10" y="1098">ssage&gt;</tspan>

<tspan x="10" y="1114"></tspan>

<tspan x="10" y="1130"># COMMAND utility2.githubCrudContentGet</tspan>

<tspan x="10" y="1146"># will get from github &lt;fileRemote&gt;</tspan>

<tspan x="10" y="1162">  assets.utility2.rollup.js  utility2.githubCrudContentGet  &lt;fileRemote&gt;</tspan>

<tspan x="10" y="1178"></tspan>

<tspan x="10" y="1194"># COMMAND utility2.githubCrudContentPut</tspan>

<tspan x="10" y="1210"># will put on github &lt;fileRemote&gt;, &lt;fileLocal&gt;</tspan>

<tspan x="10" y="1226">  assets.utility2.rollup.js  utility2.githubCrudContentPut  &lt;fileRemote&gt;  &lt;fileLocal&gt;  &lt;commitMe\</tspan>
<tspan x="10" y="1242">ssage&gt;</tspan>

<tspan x="10" y="1258"></tspan>

<tspan x="10" y="1274"># COMMAND utility2.githubCrudContentTouch</tspan>

<tspan x="10" y="1290"># will touch on github in parallel, comma-separated &lt;fileRemoteList&gt;</tspan>

<tspan x="10" y="1306">  assets.utility2.rollup.js  utility2.githubCrudContentTouch  &lt;fileRemoteList&gt;  &lt;commitMessage&gt;</tspan>

<tspan x="10" y="1322"></tspan>

<tspan x="10" y="1338"># COMMAND utility2.githubCrudRepoCreate</tspan>

<tspan x="10" y="1354"># will create on github in parallel, comma-separated &lt;repoList&gt;</tspan>

<tspan x="10" y="1370">  assets.utility2.rollup.js  utility2.githubCrudRepoCreate  &lt;repoList&gt;</tspan>

<tspan x="10" y="1386"></tspan>

<tspan x="10" y="1402"># COMMAND utility2.githubCrudRepoDelete</tspan>

<tspan x="10" y="1418"># will delete from github in parallel, comma-separated &lt;repoList&gt;</tspan>

<tspan x="10" y="1434">  assets.utility2.rollup.js  utility2.githubCrudRepoDelete  &lt;repoList&gt;</tspan>

<tspan x="10" y="1450"></tspan>

<tspan x="10" y="1466"># COMMAND utility2.start</tspan>

<tspan x="10" y="1482"># will start utility2 http-server on given &lt;port&gt; (default 8081)</tspan>

<tspan x="10" y="1498">  assets.utility2.rollup.js  utility2.start  &lt;port&gt;</tspan>

<tspan x="10" y="1514"></tspan>

<tspan x="10" y="1530"># COMMAND utility2.swaggerValidateFile</tspan>

<tspan x="10" y="1546"># will swagger-validate file/url</tspan>

<tspan x="10" y="1562">  assets.utility2.rollup.js  utility2.swaggerValidateFile  &lt;file/url&gt;</tspan>

<tspan x="10" y="1578"></tspan>

<tspan x="10" y="1594"># COMMAND utility2.testReportCreate</tspan>

<tspan x="10" y="1610"># will create test-report</tspan>

<tspan x="10" y="1626">  assets.utility2.rollup.js  utility2.testReportCreate  </tspan>

<tspan x="10" y="1642"></tspan>

<tspan x="10" y="1658"></tspan>

<tspan x="10" y="1674"></tspan>

<tspan x="10" y="1690">$ sed -in s|"integer"|"undefined"| /tmp/swagger.json</tspan>

<tspan x="10" y="1706"></tspan>

<tspan x="10" y="1722">example.sh: 1: eval: /tmp/swagger.json: Permission denied</tspan>

<tspan x="10" y="1738">example.sh: 1: eval: undefined: not found</tspan>

<tspan x="10" y="1754">example.sh: 1: eval: integer: not found</tspan>

<tspan x="10" y="1770">sed: -e expression #1, char 1: unterminated `s' command</tspan>

<tspan x="10" y="1786"></tspan>

<tspan x="10" y="1802"></tspan>

<tspan x="10" y="1818"></tspan>

<tspan x="10" y="1834">$ /tmp/node_modules/.bin/swagger-validate-lite /tmp/swagger.json</tspan>

<tspan x="10" y="1850"></tspan>

<tspan x="10" y="1866"></tspan>

<tspan x="10" y="1882">testExampleSh - merged test-report from file /home/travis/build/kaizhu256/node-swagger-validate-\</tspan>
<tspan x="10" y="1898">lite/tmp/build/test-report.json</tspan>

<tspan x="10" y="1914">swagger-validate-lite (2018.8.19)</tspan>

<tspan x="10" y="1930"></tspan>

<tspan x="10" y="1946">usage:</tspan>

<tspan x="10" y="1962">  assets.utility2.rollup.js  &lt;arg1&gt;  &lt;arg2&gt;  ...</tspan>

<tspan x="10" y="1978"></tspan>

<tspan x="10" y="1994">example:</tspan>

<tspan x="10" y="2010">  assets.utility2.rollup.js  --eval  'console.log("hello world")'</tspan>

<tspan x="10" y="2026"></tspan>

<tspan x="10" y="2042"># COMMAND --eval</tspan>

<tspan x="10" y="2058"># will eval &lt;code&gt;</tspan>

<tspan x="10" y="2074">  assets.utility2.rollup.js  --eval|-e  &lt;code&gt;</tspan>

<tspan x="10" y="2090"></tspan>

<tspan x="10" y="2106"># COMMAND --help</tspan>

<tspan x="10" y="2122"># will print help</tspan>

<tspan x="10" y="2138">  assets.utility2.rollup.js  --help|-h|help  </tspan>

<tspan x="10" y="2154"></tspan>

<tspan x="10" y="2170"># COMMAND --interactive</tspan>

<tspan x="10" y="2186"># will start interactive-mode</tspan>

<tspan x="10" y="2202">  assets.utility2.rollup.js  --interactive|-i  </tspan>

<tspan x="10" y="2218"></tspan>

<tspan x="10" y="2234"># COMMAND --version</tspan>

<tspan x="10" y="2250"># will print version</tspan>

<tspan x="10" y="2266">  assets.utility2.rollup.js  --version|-v  </tspan>

<tspan x="10" y="2282"></tspan>

<tspan x="10" y="2298"># COMMAND utility2.browserTest</tspan>

<tspan x="10" y="2314"># will browser-test in parallel, comma-separated &lt;urlList&gt; with given &lt;mode&gt;</tspan>

<tspan x="10" y="2330">  assets.utility2.rollup.js  utility2.browserTest  &lt;urlList&gt;  &lt;mode&gt;</tspan>

<tspan x="10" y="2346"></tspan>

<tspan x="10" y="2362"># COMMAND utility2.githubCrudContentDelete</tspan>

<tspan x="10" y="2378"># will delete from github &lt;fileRemote|dirRemote&gt;</tspan>

<tspan x="10" y="2394">  assets.utility2.rollup.js  utility2.githubCrudContentDelete  &lt;fileRemote|dirRemote&gt;  &lt;commitMe\</tspan>
<tspan x="10" y="2410">ssage&gt;</tspan>

<tspan x="10" y="2426"></tspan>

<tspan x="10" y="2442"># COMMAND utility2.githubCrudContentGet</tspan>

<tspan x="10" y="2458"># will get from github &lt;fileRemote&gt;</tspan>

<tspan x="10" y="2474">  assets.utility2.rollup.js  utility2.githubCrudContentGet  &lt;fileRemote&gt;</tspan>

<tspan x="10" y="2490"></tspan>

<tspan x="10" y="2506"># COMMAND utility2.githubCrudContentPut</tspan>

<tspan x="10" y="2522"># will put on github &lt;fileRemote&gt;, &lt;fileLocal&gt;</tspan>

<tspan x="10" y="2538">  assets.utility2.rollup.js  utility2.githubCrudContentPut  &lt;fileRemote&gt;  &lt;fileLocal&gt;  &lt;commitMe\</tspan>
<tspan x="10" y="2554">ssage&gt;</tspan>

<tspan x="10" y="2570"></tspan>

<tspan x="10" y="2586"># COMMAND utility2.githubCrudContentTouch</tspan>

<tspan x="10" y="2602"># will touch on github in parallel, comma-separated &lt;fileRemoteList&gt;</tspan>

<tspan x="10" y="2618">  assets.utility2.rollup.js  utility2.githubCrudContentTouch  &lt;fileRemoteList&gt;  &lt;commitMessage&gt;</tspan>

<tspan x="10" y="2634"></tspan>

<tspan x="10" y="2650"># COMMAND utility2.githubCrudRepoCreate</tspan>

<tspan x="10" y="2666"># will create on github in parallel, comma-separated &lt;repoList&gt;</tspan>

<tspan x="10" y="2682">  assets.utility2.rollup.js  utility2.githubCrudRepoCreate  &lt;repoList&gt;</tspan>

<tspan x="10" y="2698"></tspan>

<tspan x="10" y="2714"># COMMAND utility2.githubCrudRepoDelete</tspan>

<tspan x="10" y="2730"># will delete from github in parallel, comma-separated &lt;repoList&gt;</tspan>

<tspan x="10" y="2746">  assets.utility2.rollup.js  utility2.githubCrudRepoDelete  &lt;repoList&gt;</tspan>

<tspan x="10" y="2762"></tspan>

<tspan x="10" y="2778"># COMMAND utility2.start</tspan>

<tspan x="10" y="2794"># will start utility2 http-server on given &lt;port&gt; (default 8081)</tspan>

<tspan x="10" y="2810">  assets.utility2.rollup.js  utility2.start  &lt;port&gt;</tspan>

<tspan x="10" y="2826"></tspan>

<tspan x="10" y="2842"># COMMAND utility2.swaggerValidateFile</tspan>

<tspan x="10" y="2858"># will swagger-validate file/url</tspan>

<tspan x="10" y="2874">  assets.utility2.rollup.js  utility2.swaggerValidateFile  &lt;file/url&gt;</tspan>

<tspan x="10" y="2890"></tspan>

<tspan x="10" y="2906"># COMMAND utility2.testReportCreate</tspan>

<tspan x="10" y="2922"># will create test-report</tspan>

<tspan x="10" y="2938">  assets.utility2.rollup.js  utility2.testReportCreate  </tspan>

<tspan x="10" y="2954"></tspan>

<tspan x="10" y="2970"></tspan>

<tspan x="10" y="2986"></tspan>

<tspan x="10" y="3002">$ /tmp/node_modules/.bin/swagger-validate-lite http://petstore.swagger.io/v2/swagger.json</tspan>

<tspan x="10" y="3018"></tspan>

<tspan x="10" y="3034"></tspan>

<tspan x="10" y="3050">testExampleSh - merged test-report from file /home/travis/build/kaizhu256/node-swagger-validate-\</tspan>
<tspan x="10" y="3066">lite/tmp/build/test-report.json</tspan>

<tspan x="10" y="3082">swagger-validate-lite (2018.8.19)</tspan>

<tspan x="10" y="3098"></tspan>

<tspan x="10" y="3114">usage:</tspan>

<tspan x="10" y="3130">  assets.utility2.rollup.js  &lt;arg1&gt;  &lt;arg2&gt;  ...</tspan>

<tspan x="10" y="3146"></tspan>

<tspan x="10" y="3162">example:</tspan>

<tspan x="10" y="3178">  assets.utility2.rollup.js  --eval  'console.log("hello world")'</tspan>

<tspan x="10" y="3194"></tspan>

<tspan x="10" y="3210"># COMMAND --eval</tspan>

<tspan x="10" y="3226"># will eval &lt;code&gt;</tspan>

<tspan x="10" y="3242">  assets.utility2.rollup.js  --eval|-e  &lt;code&gt;</tspan>

<tspan x="10" y="3258"></tspan>

<tspan x="10" y="3274"># COMMAND --help</tspan>

<tspan x="10" y="3290"># will print help</tspan>

<tspan x="10" y="3306">  assets.utility2.rollup.js  --help|-h|help  </tspan>

<tspan x="10" y="3322"></tspan>

<tspan x="10" y="3338"># COMMAND --interactive</tspan>

<tspan x="10" y="3354"># will start interactive-mode</tspan>

<tspan x="10" y="3370">  assets.utility2.rollup.js  --interactive|-i  </tspan>

<tspan x="10" y="3386"></tspan>

<tspan x="10" y="3402"># COMMAND --version</tspan>

<tspan x="10" y="3418"># will print version</tspan>

<tspan x="10" y="3434">  assets.utility2.rollup.js  --version|-v  </tspan>

<tspan x="10" y="3450"></tspan>

<tspan x="10" y="3466"># COMMAND utility2.browserTest</tspan>

<tspan x="10" y="3482"># will browser-test in parallel, comma-separated &lt;urlList&gt; with given &lt;mode&gt;</tspan>

<tspan x="10" y="3498">  assets.utility2.rollup.js  utility2.browserTest  &lt;urlList&gt;  &lt;mode&gt;</tspan>

<tspan x="10" y="3514"></tspan>

<tspan x="10" y="3530"># COMMAND utility2.githubCrudContentDelete</tspan>

<tspan x="10" y="3546"># will delete from github &lt;fileRemote|dirRemote&gt;</tspan>

<tspan x="10" y="3562">  assets.utility2.rollup.js  utility2.githubCrudContentDelete  &lt;fileRemote|dirRemote&gt;  &lt;commitMe\</tspan>
<tspan x="10" y="3578">ssage&gt;</tspan>

<tspan x="10" y="3594"></tspan>

<tspan x="10" y="3610"># COMMAND utility2.githubCrudContentGet</tspan>

<tspan x="10" y="3626"># will get from github &lt;fileRemote&gt;</tspan>

<tspan x="10" y="3642">  assets.utility2.rollup.js  utility2.githubCrudContentGet  &lt;fileRemote&gt;</tspan>

<tspan x="10" y="3658"></tspan>

<tspan x="10" y="3674"># COMMAND utility2.githubCrudContentPut</tspan>

<tspan x="10" y="3690"># will put on github &lt;fileRemote&gt;, &lt;fileLocal&gt;</tspan>

<tspan x="10" y="3706">  assets.utility2.rollup.js  utility2.githubCrudContentPut  &lt;fileRemote&gt;  &lt;fileLocal&gt;  &lt;commitMe\</tspan>
<tspan x="10" y="3722">ssage&gt;</tspan>

<tspan x="10" y="3738"></tspan>

<tspan x="10" y="3754"># COMMAND utility2.githubCrudContentTouch</tspan>

<tspan x="10" y="3770"># will touch on github in parallel, comma-separated &lt;fileRemoteList&gt;</tspan>

<tspan x="10" y="3786">  assets.utility2.rollup.js  utility2.githubCrudContentTouch  &lt;fileRemoteList&gt;  &lt;commitMessage&gt;</tspan>

<tspan x="10" y="3802"></tspan>

<tspan x="10" y="3818"># COMMAND utility2.githubCrudRepoCreate</tspan>

<tspan x="10" y="3834"># will create on github in parallel, comma-separated &lt;repoList&gt;</tspan>

<tspan x="10" y="3850">  assets.utility2.rollup.js  utility2.githubCrudRepoCreate  &lt;repoList&gt;</tspan>

<tspan x="10" y="3866"></tspan>

<tspan x="10" y="3882"># COMMAND utility2.githubCrudRepoDelete</tspan>

<tspan x="10" y="3898"># will delete from github in parallel, comma-separated &lt;repoList&gt;</tspan>

<tspan x="10" y="3914">  assets.utility2.rollup.js  utility2.githubCrudRepoDelete  &lt;repoList&gt;</tspan>

<tspan x="10" y="3930"></tspan>

<tspan x="10" y="3946"># COMMAND utility2.start</tspan>

<tspan x="10" y="3962"># will start utility2 http-server on given &lt;port&gt; (default 8081)</tspan>

<tspan x="10" y="3978">  assets.utility2.rollup.js  utility2.start  &lt;port&gt;</tspan>

<tspan x="10" y="3994"></tspan>

<tspan x="10" y="4010"># COMMAND utility2.swaggerValidateFile</tspan>

<tspan x="10" y="4026"># will swagger-validate file/url</tspan>

<tspan x="10" y="4042">  assets.utility2.rollup.js  utility2.swaggerValidateFile  &lt;file/url&gt;</tspan>

<tspan x="10" y="4058"></tspan>

<tspan x="10" y="4074"># COMMAND utility2.testReportCreate</tspan>

<tspan x="10" y="4090"># will create test-report</tspan>

<tspan x="10" y="4106">  assets.utility2.rollup.js  utility2.testReportCreate</tspan>

</text>
</svg>
