<svg height="1070" width="720" xmlns="http://www.w3.org/2000/svg">
<rect height="1070" fill="#555" width="720"></rect>
<text fill="#7f7" font-family="Courier New" font-size="12" xml:space="preserve">
<tspan x="10" y="26"></tspan>

<tspan x="10" y="42">&gt; swagger-validate-lite@2019.2.12 postinstall /tmp/node_modules/swagger-validate-lite</tspan>

<tspan x="10" y="58">&gt; ./npm_scripts.sh</tspan>

<tspan x="10" y="74"></tspan>

<tspan x="10" y="90">running command 'npm run postinstall kaizhu256/node-swagger-validate-lite#alpha' ...</tspan>

<tspan x="10" y="106">... finished running command 'npm run postinstall kaizhu256/node-swagger-validate-lite#alpha'</tspan>

<tspan x="10" y="122">npm WARN saveError ENOENT: no such file or directory, open '/tmp/package.json'</tspan>

<tspan x="10" y="138">npm notice created a lockfile as package-lock.json. You should commit this file.</tspan>

<tspan x="10" y="154">npm WARN enoent ENOENT: no such file or directory, open '/tmp/package.json'</tspan>

<tspan x="10" y="170">npm WARN tmp No description</tspan>

<tspan x="10" y="186">npm WARN tmp No repository field.</tspan>

<tspan x="10" y="202">npm WARN tmp No README data</tspan>

<tspan x="10" y="218">npm WARN tmp No license field.</tspan>

<tspan x="10" y="234"></tspan>

<tspan x="10" y="250">+ swagger-validate-lite@2019.2.12</tspan>

<tspan x="10" y="266">added 1 package from 1 contributor and audited 1 package in 0.454s</tspan>

<tspan x="10" y="282">found 0 vulnerabilities</tspan>

<tspan x="10" y="298"></tspan>

<tspan x="10" y="314"></tspan>

<tspan x="10" y="330"></tspan>

<tspan x="10" y="346"></tspan>

<tspan x="10" y="362">$ curl -o /tmp/swagger.json http://petstore.swagger.io/v2/swagger.json</tspan>

<tspan x="10" y="378"></tspan>

<tspan x="10" y="394">  % Total    % Received % Xferd  Average Speed   Time    Time     Time  Current</tspan>

<tspan x="10" y="410">                                 Dload  Upload   Total   Spent    Left  Speed</tspan>

<tspan x="10" y="426"></tspan>
<tspan x="10" y="442">  0     0    0     0    0     0      0      0 --:--:-- --:--:-- --:--:--     0</tspan>
<tspan x="10" y="458">100 13689    0 13689    0     0   135k      0 --:--:-- --:--:-- --:--:--  136k</tspan>

<tspan x="10" y="474"></tspan>

<tspan x="10" y="490"></tspan>

<tspan x="10" y="506"></tspan>

<tspan x="10" y="522">$ /tmp/node_modules/.bin/swagger-validate-lite /tmp/swagger.json</tspan>

<tspan x="10" y="538"></tspan>

<tspan x="10" y="554"></tspan>

<tspan x="10" y="570">testExampleSh - merged test-report from file /home/travis/build/kaizhu256/node-swagger-validate-\</tspan>
<tspan x="10" y="586">lite/tmp/build/test-report.json</tspan>

<tspan x="10" y="602">swagger-validate - passed - /tmp/swagger.json</tspan>

<tspan x="10" y="618"></tspan>

<tspan x="10" y="634"></tspan>

<tspan x="10" y="650"></tspan>

<tspan x="10" y="666">$ sed -in s|"integer"|"undefined"| /tmp/swagger.json</tspan>

<tspan x="10" y="682"></tspan>

<tspan x="10" y="698">example.sh: 1: eval: example.sh: 1: eval: sed: -e expression #1, char 1: unterminated `s' comman\</tspan>
<tspan x="10" y="714">d</tspan>

<tspan x="10" y="730">example.sh: 1: eval: /tmp/swagger.json: Permission denied</tspan>

<tspan x="10" y="746">undefined: not found</tspan>

<tspan x="10" y="762">integer: not found</tspan>

<tspan x="10" y="778"></tspan>

<tspan x="10" y="794"></tspan>

<tspan x="10" y="810"></tspan>

<tspan x="10" y="826">$ /tmp/node_modules/.bin/swagger-validate-lite /tmp/swagger.json</tspan>

<tspan x="10" y="842"></tspan>

<tspan x="10" y="858"></tspan>

<tspan x="10" y="874">testExampleSh - merged test-report from file /home/travis/build/kaizhu256/node-swagger-validate-\</tspan>
<tspan x="10" y="890">lite/tmp/build/test-report.json</tspan>

<tspan x="10" y="906">swagger-validate - passed - /tmp/swagger.json</tspan>

<tspan x="10" y="922"></tspan>

<tspan x="10" y="938"></tspan>

<tspan x="10" y="954"></tspan>

<tspan x="10" y="970">$ /tmp/node_modules/.bin/swagger-validate-lite http://petstore.swagger.io/v2/swagger.json</tspan>

<tspan x="10" y="986"></tspan>

<tspan x="10" y="1002"></tspan>

<tspan x="10" y="1018">testExampleSh - merged test-report from file /home/travis/build/kaizhu256/node-swagger-validate-\</tspan>
<tspan x="10" y="1034">lite/tmp/build/test-report.json</tspan>

<tspan x="10" y="1050">swagger-validate - passed - http://petstore.swagger.io/v2/swagger.json</tspan>

</text>
</svg>
