<svg height="1070" width="720" xmlns="http://www.w3.org/2000/svg">
<rect height="1070" fill="#555" width="720"></rect>
<text fill="#7f7" font-family="Courier New" font-size="12" xml:space="preserve">
<tspan x="10" y="26">swagger-validate-lite (2018.8.19)</tspan>

<tspan x="10" y="42"></tspan>

<tspan x="10" y="58">usage:</tspan>

<tspan x="10" y="74">  assets.utility2.rollup.js  &lt;arg1&gt;  &lt;arg2&gt;  ...</tspan>

<tspan x="10" y="90"></tspan>

<tspan x="10" y="106">example:</tspan>

<tspan x="10" y="122">  assets.utility2.rollup.js  --eval  'console.log("hello world")'</tspan>

<tspan x="10" y="138"></tspan>

<tspan x="10" y="154"># COMMAND --eval</tspan>

<tspan x="10" y="170"># will eval &lt;code&gt;</tspan>

<tspan x="10" y="186">  assets.utility2.rollup.js  --eval|-e  &lt;code&gt;</tspan>

<tspan x="10" y="202"></tspan>

<tspan x="10" y="218"># COMMAND --help</tspan>

<tspan x="10" y="234"># will print help</tspan>

<tspan x="10" y="250">  assets.utility2.rollup.js  --help|-h|help  </tspan>

<tspan x="10" y="266"></tspan>

<tspan x="10" y="282"># COMMAND --interactive</tspan>

<tspan x="10" y="298"># will start interactive-mode</tspan>

<tspan x="10" y="314">  assets.utility2.rollup.js  --interactive|-i  </tspan>

<tspan x="10" y="330"></tspan>

<tspan x="10" y="346"># COMMAND --version</tspan>

<tspan x="10" y="362"># will print version</tspan>

<tspan x="10" y="378">  assets.utility2.rollup.js  --version|-v  </tspan>

<tspan x="10" y="394"></tspan>

<tspan x="10" y="410"># COMMAND utility2.browserTest</tspan>

<tspan x="10" y="426"># will browser-test in parallel, comma-separated &lt;urlList&gt; with given &lt;mode&gt;</tspan>

<tspan x="10" y="442">  assets.utility2.rollup.js  utility2.browserTest  &lt;urlList&gt;  &lt;mode&gt;</tspan>

<tspan x="10" y="458"></tspan>

<tspan x="10" y="474"># COMMAND utility2.githubCrudContentDelete</tspan>

<tspan x="10" y="490"># will delete from github &lt;fileRemote|dirRemote&gt;</tspan>

<tspan x="10" y="506">  assets.utility2.rollup.js  utility2.githubCrudContentDelete  &lt;fileRemote|dirRemote&gt;  &lt;commitMe\</tspan>
<tspan x="10" y="522">ssage&gt;</tspan>

<tspan x="10" y="538"></tspan>

<tspan x="10" y="554"># COMMAND utility2.githubCrudContentGet</tspan>

<tspan x="10" y="570"># will get from github &lt;fileRemote&gt;</tspan>

<tspan x="10" y="586">  assets.utility2.rollup.js  utility2.githubCrudContentGet  &lt;fileRemote&gt;</tspan>

<tspan x="10" y="602"></tspan>

<tspan x="10" y="618"># COMMAND utility2.githubCrudContentPut</tspan>

<tspan x="10" y="634"># will put on github &lt;fileRemote&gt;, &lt;fileLocal&gt;</tspan>

<tspan x="10" y="650">  assets.utility2.rollup.js  utility2.githubCrudContentPut  &lt;fileRemote&gt;  &lt;fileLocal&gt;  &lt;commitMe\</tspan>
<tspan x="10" y="666">ssage&gt;</tspan>

<tspan x="10" y="682"></tspan>

<tspan x="10" y="698"># COMMAND utility2.githubCrudContentTouch</tspan>

<tspan x="10" y="714"># will touch on github in parallel, comma-separated &lt;fileRemoteList&gt;</tspan>

<tspan x="10" y="730">  assets.utility2.rollup.js  utility2.githubCrudContentTouch  &lt;fileRemoteList&gt;  &lt;commitMessage&gt;</tspan>

<tspan x="10" y="746"></tspan>

<tspan x="10" y="762"># COMMAND utility2.githubCrudRepoCreate</tspan>

<tspan x="10" y="778"># will create on github in parallel, comma-separated &lt;repoList&gt;</tspan>

<tspan x="10" y="794">  assets.utility2.rollup.js  utility2.githubCrudRepoCreate  &lt;repoList&gt;</tspan>

<tspan x="10" y="810"></tspan>

<tspan x="10" y="826"># COMMAND utility2.githubCrudRepoDelete</tspan>

<tspan x="10" y="842"># will delete from github in parallel, comma-separated &lt;repoList&gt;</tspan>

<tspan x="10" y="858">  assets.utility2.rollup.js  utility2.githubCrudRepoDelete  &lt;repoList&gt;</tspan>

<tspan x="10" y="874"></tspan>

<tspan x="10" y="890"># COMMAND utility2.start</tspan>

<tspan x="10" y="906"># will start utility2 http-server on given &lt;port&gt; (default 8081)</tspan>

<tspan x="10" y="922">  assets.utility2.rollup.js  utility2.start  &lt;port&gt;</tspan>

<tspan x="10" y="938"></tspan>

<tspan x="10" y="954"># COMMAND utility2.swaggerValidateFile</tspan>

<tspan x="10" y="970"># will swagger-validate file/url</tspan>

<tspan x="10" y="986">  assets.utility2.rollup.js  utility2.swaggerValidateFile  &lt;file/url&gt;</tspan>

<tspan x="10" y="1002"></tspan>

<tspan x="10" y="1018"># COMMAND utility2.testReportCreate</tspan>

<tspan x="10" y="1034"># will create test-report</tspan>

<tspan x="10" y="1050">  assets.utility2.rollup.js  utility2.testReportCreate</tspan>

</text>
</svg>
