<svg height="926" width="720" xmlns="http://www.w3.org/2000/svg">
<rect height="926" fill="#555" width="720"></rect>
<text fill="#7f7" font-family="Courier New" font-size="12" xml:space="preserve">
<tspan x="10" y="26"></tspan>
<tspan x="10" y="42">&gt; swagger-validate-lite@2018.1.21 postinstall /tmp/node_modules/swagger-validate-lite</tspan>
<tspan x="10" y="58">&gt; [ ! -f npm_scripts.sh ] || ./npm_scripts.sh postinstall</tspan>
<tspan x="10" y="74"></tspan>
<tspan x="10" y="90">/tmp</tspan>
<tspan x="10" y="106">└── swagger-validate-lite@2018.1.21 </tspan>
<tspan x="10" y="122"></tspan>
<tspan x="10" y="138">npm WARN enoent ENOENT: no such file or directory, open '/tmp/package.json'</tspan>
<tspan x="10" y="154">npm WARN tmp No description</tspan>
<tspan x="10" y="170">npm WARN tmp No repository field.</tspan>
<tspan x="10" y="186">npm WARN tmp No README data</tspan>
<tspan x="10" y="202">npm WARN tmp No license field.</tspan>
<tspan x="10" y="218"></tspan>
<tspan x="10" y="234"></tspan>
<tspan x="10" y="250"></tspan>
<tspan x="10" y="266">$ curl -o /tmp/swagger.json http://petstore.swagger.io/v2/swagger.json</tspan>
<tspan x="10" y="282"></tspan>
<tspan x="10" y="298">  % Total    % Received % Xferd  Average Speed   Time    Time     Time  Current</tspan>
<tspan x="10" y="314">                                 Dload  Upload   Total   Spent    Left  Speed</tspan>
  0     0    0     0    0     0      0      0 --:--:-- --:--:-- --:--:--     0<tspan x="10" y="330">100 13676    0 13676    0     0   156k      0 --:--:-- --:--:-- --:--:--  157k</tspan>
<tspan x="10" y="346"></tspan>
<tspan x="10" y="362"></tspan>
<tspan x="10" y="378"></tspan>
<tspan x="10" y="394">$ /tmp/node_modules/.bin/swagger-validate-lite /tmp/swagger.json</tspan>
<tspan x="10" y="410"></tspan>
<tspan x="10" y="426"></tspan>
<tspan x="10" y="442">testExampleSh - merged test-report from file /home/travis/build/kaizhu256/node-swagger-validate-\</tspan>
<tspan x="10" y="458">lite/tmp/build/test-report.json</tspan>
<tspan x="10" y="474">swagger-validate - passed - /tmp/swagger.json</tspan>
<tspan x="10" y="490"></tspan>
<tspan x="10" y="506"></tspan>
<tspan x="10" y="522"></tspan>
<tspan x="10" y="538">$ sed -in s|"integer"|"undefined"| /tmp/swagger.json</tspan>
<tspan x="10" y="554"></tspan>
<tspan x="10" y="570">example.sh: 1: eval: /tmp/swagger.json: Permission denied</tspan>
<tspan x="10" y="586">example.sh: 1: eval: integer: not found</tspan>
<tspan x="10" y="602">example.sh: 1: eval: undefined: not found</tspan>
<tspan x="10" y="618">sed: -e expression #1, char 1: unterminated `s' command</tspan>
<tspan x="10" y="634"></tspan>
<tspan x="10" y="650"></tspan>
<tspan x="10" y="666"></tspan>
<tspan x="10" y="682">$ /tmp/node_modules/.bin/swagger-validate-lite /tmp/swagger.json</tspan>
<tspan x="10" y="698"></tspan>
<tspan x="10" y="714"></tspan>
<tspan x="10" y="730">testExampleSh - merged test-report from file /home/travis/build/kaizhu256/node-swagger-validate-\</tspan>
<tspan x="10" y="746">lite/tmp/build/test-report.json</tspan>
<tspan x="10" y="762">swagger-validate - passed - /tmp/swagger.json</tspan>
<tspan x="10" y="778"></tspan>
<tspan x="10" y="794"></tspan>
<tspan x="10" y="810"></tspan>
<tspan x="10" y="826">$ /tmp/node_modules/.bin/swagger-validate-lite http://petstore.swagger.io/v2/swagger.json</tspan>
<tspan x="10" y="842"></tspan>
<tspan x="10" y="858"></tspan>
<tspan x="10" y="874">testExampleSh - merged test-report from file /home/travis/build/kaizhu256/node-swagger-validate-\</tspan>
<tspan x="10" y="890">lite/tmp/build/test-report.json</tspan>
<tspan x="10" y="906">swagger-validate - passed - http://petstore.swagger.io/v2/swagger.json</tspan>
</text>
</svg>
